<?xml version="1.0" encoding="UTF-8" standalone="no"?>
<!-- Created with Inkscape (http://www.inkscape.org/) -->

<svg
   width="229.099mm"
   height="47.449001mm"
   viewBox="0 0 229.099 47.449001"
   version="1.1"
   id="svg5"
   inkscape:version="1.1 (c68e22c387, 2021-05-23)"
   sodipodi:docname="logo.svg"
   xmlns:inkscape="http://www.inkscape.org/namespaces/inkscape"
   xmlns:sodipodi="http://sodipodi.sourceforge.net/DTD/sodipodi-0.dtd"
   xmlns="http://www.w3.org/2000/svg"
   xmlns:svg="http://www.w3.org/2000/svg">
  <sodipodi:namedview
     id="namedview7"
     pagecolor="#505050"
     bordercolor="#eeeeee"
     borderopacity="1"
     inkscape:pageshadow="0"
     inkscape:pageopacity="0"
     inkscape:pagecheckerboard="0"
     inkscape:document-units="mm"
     showgrid="false"
     inkscape:zoom="0.74118967"
     inkscape:cx="655.02802"
     inkscape:cy="12.817232"
     inkscape:window-width="1920"
     inkscape:window-height="1017"
     inkscape:window-x="1672"
     inkscape:window-y="-8"
     inkscape:window-maximized="1"
     inkscape:current-layer="layer1"
     showguides="true" />
  <defs
     id="defs2" />
  <g
     inkscape:label="Layer"
     inkscape:groupmode="layer"
     id="layer1">
    <g
       aria-label="DCORE"
       id="text4816-7"
       style="font-size:52.9167px;line-height:1.25;font-family:Menomonia;-inkscape-font-specification:Menomonia;text-decoration:underline;text-decoration-line:underline;stroke-width:0.264583">
      <path
         d="m 75.000003,35.605083 q 0.852662,-0.490926 1.601971,-1.756999 0.775146,-1.266074 0.775146,-2.480471 V 0.31005901 h 12.118131 q 6.821293,0 10.826219,4.90926399 4.00493,4.909264 4.00493,12.764086 0,3.643191 -1.05937,6.821294 -1.03353,3.178102 -3.02307,5.606896 -1.989548,2.402955 -5.115974,3.79822 -3.126426,1.395264 -7.002161,1.395264 z m 6.356205,-2.91972 h 8.139043 q 2.557985,0 5.038455,-1.937867 2.480471,-1.963706 4.082441,-5.400191 1.627813,-3.462323 1.627813,-7.415572 0,-2.687176 -0.775151,-5.322676 Q 98.693662,9.9477194 97.375912,7.8806609 96.058162,5.8136024 94.146133,4.5216908 92.259942,3.2297792 90.192883,3.2297792 h -8.836675 z"
         id="path23670" />
      <path
         d="m 109.54572,17.182424 q 0,-3.746543 1.24023,-6.976322 1.26608,-3.2297792 3.41065,-5.4518671 2.14457,-2.222088 5.09013,-3.4881613 Q 122.25813,2.2724271e-7 125.59126,2.2724271e-7 q 2.42879,0 4.65088,0.38757347275729 2.22209,0.38757348 3.72071,0.9818528 1.49862,0.5942793 2.42879,1.111044 0.93018,0.4909264 1.4211,0.9043381 v 4.9609405 q -0.77514,-0.9818528 -1.83451,-1.8603527 -1.05937,-0.9043381 -2.55798,-1.7311615 -1.47278,-0.8526617 -3.48817,-1.3435881 -2.01538,-0.5167646 -4.23747,-0.5167646 -2.22208,0 -4.36666,0.9818528 -2.14457,0.9818528 -3.87573,2.7130143 -1.70533,1.7311615 -2.76469,4.3666607 -1.05937,2.6355 -1.05937,5.71025 0,3.255617 0.74931,6.020308 0.74931,2.738852 1.98954,4.625043 1.26608,1.860353 2.89388,3.203941 1.62781,1.31775 3.33314,1.937867 1.73116,0.620118 3.46232,0.620118 3.53984,0 5.86528,-0.981853 2.35128,-0.981853 4.28914,-2.790529 1.05937,-0.981853 1.65365,-2.067059 l -0.80098,5.736088 q -3.02308,1.679485 -5.19349,2.351279 -2.14457,0.645956 -6.07198,0.645956 -3.43649,0 -6.38205,-1.188559 -2.94555,-1.214397 -5.16764,-3.488161 -2.19625,-2.299603 -3.46233,-5.916955 -1.24023,-3.617353 -1.24023,-8.19072 z"
         id="path23672" />
      <path
         d="m 142.38611,18.138439 q 0,-4.185794 1.24023,-7.648117 1.24024,-3.4623228 3.38481,-5.7360871 2.17041,-2.2737644 5.03846,-3.5139996 Q 154.94349,2.2724271e-7 158.22494,2.2724271e-7 q 2.60966,0 5.01262,0.85266164275729 2.42879,0.82682343 4.3925,2.45463203 1.9637,1.6019703 3.43648,3.79822 1.47278,2.1962497 2.27377,5.0384551 0.80098,2.842206 0.80098,5.99447 0,4.263308 -1.29191,7.699793 -1.26607,3.436485 -3.48816,5.632734 -2.19625,2.170412 -5.06429,3.333132 -2.84221,1.162721 -6.07199,1.162721 -6.92464,0 -11.39466,-4.960941 -4.44417,-4.96094 -4.44417,-12.867439 z m 4.18579,-1.421103 q 0,7.544764 3.33313,11.937263 3.35897,4.366661 8.83668,4.366661 2.19625,0 4.21163,-1.007691 2.04122,-1.007691 3.59151,-2.790529 1.5503,-1.808676 2.48047,-4.495852 0.93018,-2.713014 0.93018,-5.891117 0,-2.325441 -0.49093,-4.573367 Q 168.99949,11.98894 167.99179,9.9477194 166.9841,7.8806609 165.563,6.330367 164.1419,4.7542349 162.10068,3.8240585 160.0853,2.8938822 157.73402,2.8938822 q -2.19625,0 -4.1858,0.9301763 -1.98954,0.9043381 -3.56567,2.6096614 -1.5503,1.7053233 -2.48047,4.3666611 -0.93018,2.661338 -0.93018,5.916955 z"
         id="path23674" />
      <path
         d="m 177.78448,0.31005901 h 13.07415 q 5.19348,0 8.19072,2.97139659 3.02307,2.9455585 3.02307,7.2347054 0,4.23747 -2.32544,6.743778 -2.2996,2.48047 -6.04615,3.307294 l 9.53431,15.03785 h -4.80591 l -9.1209,-14.701953 h -5.21932 v 11.007086 q 0,1.291912 0.59428,2.118735 0.59428,0.800986 1.73116,1.576132 h -6.30453 V 4.0049261 q 0,-1.2919115 -0.59428,-2.0928967 -0.59427,-0.8268234 -1.73116,-1.60197039 z m 6.30453,17.67334999 h 5.8136 q 1.42111,0 2.76469,-0.413411 1.36943,-0.413412 2.55799,-1.240235 1.18856,-0.852662 1.91203,-2.299603 0.74931,-1.446941 0.74931,-3.307294 0,-3.2297786 -2.0929,-5.3485136 -2.06706,-2.1445732 -5.52938,-2.1445732 h -6.17534 z"
         id="path23676" />
      <path
         d="M 209.25545,35.605083 V 0.31005901 h 19.79208 V 5.55522 Q 228.014,4.4183378 226.67042,3.8240585 225.35267,3.2297792 222.79468,3.2297792 h -9.56015 V 15.554616 h 13.07415 v 5.245161 q -1.86035,-2.351279 -6.30453,-2.351279 h -6.76962 v 14.236865 h 15.86468 l -0.0517,2.91972 z"
         id="path23678" />
    </g>
    <g
       aria-label="RA"
       id="text4816"
       style="font-size:52.9167px;line-height:1.25;font-family:Menomonia;-inkscape-font-specification:Menomonia;text-decoration:underline;text-decoration-line:underline;stroke-width:0.264583">
      <path
         d="m 1,0.31005901 h 13.074145 q 5.193485,0 8.19072,2.97139659 3.023073,2.9455585 3.023073,7.2347054 0,4.23747 -2.325441,6.743778 -2.299603,2.48047 -6.046146,3.307294 l 9.534307,15.03785 H 21.644747 L 12.523851,20.90313 H 7.3045285 v 11.007086 q 0,1.291912 0.5942794,2.118735 0.5942793,0.800986 1.7311615,1.576132 H 3.3254409 V 4.0049261 q 0,-1.2919115 -0.5942794,-2.0928967 Q 2.1368822,1.085206 1,0.31005901 Z M 7.3045285,17.983409 h 5.8136025 q 1.421102,0 2.76469,-0.413411 1.369427,-0.413412 2.557985,-1.240235 1.188559,-0.852662 1.91203,-2.299603 0.749308,-1.446941 0.749308,-3.307294 0,-3.2297786 -2.092897,-5.3485136 Q 16.942189,3.2297792 13.479866,3.2297792 H 7.3045285 Z"
         id="path23699" />
      <path
         d="M 29.835466,35.605083 43.478053,0.31005901 h 0.852661 L 58.076653,35.605083 h -7.286381 q 0.904338,-0.361735 1.472779,-1.343588 0.310059,-0.516764 0.310059,-1.111044 0,-0.542602 -0.258382,-1.188558 L 50.247669,26.561702 H 36.50173 l -3.488161,9.043381 z M 37.561097,23.641982 H 49.084949 L 43.323023,8.6816461 Z"
         id="path23701" />
    </g>
    <path
       style="fill:#000000;stroke:#000000;stroke-width:0.264583px;stroke-linecap:butt;stroke-linejoin:miter;stroke-opacity:1"
       d="m 66.51175,47.317199 -0.818693,-0.818693 -0.232045,-0.866007 0.21675,-0.375423 v -8.604067 h -2.259015 l -0.923521,-0.533196 -1.218742,-1.218743 -0.644158,-0.847156 3.41e-4,-0.446214 0.660554,0.482624 0.922667,0.342588 h 0.782165 l -0.847807,-0.494927 -0.744642,-0.511649 v -1.45455 l 0.64997,0.64997 v -1.365779 l 0.987587,-1.710547 v 1.54605 l 0.615264,0.615268 h 0.776322 V 3.9133712 l 2.106629,-3.64878822 v 0 L 68.648005,3.9133712 V 31.706748 h 0.776322 l 0.615264,-0.615268 v -1.54605 l 0.987587,1.710547 v 1.365779 l 0.64997,-0.64997 v 1.45455 l -0.744642,0.511649 -0.847807,0.494927 h 0.782165 l 0.922667,-0.342588 0.660554,-0.482624 3.41e-4,0.446214 -0.644158,0.847156 -1.218742,1.218743 -0.923521,0.533196 H 67.40499 v 8.604067 l 0.21675,0.375423 -0.232045,0.866007 -0.818693,0.818693 z"
       sodipodi:nodetypes="ccccccccccccccccccccccccccccccccccccccccccccccccc"
       id="path92166" />
    <rect
       id="rect56"
       width="57"
       height="2.5"
       x="1"
       y="40"
       style="fill:#000000;stroke-width:0.255627" />
    <rect
       id="rect56-2"
       width="154.10678"
       height="2.5061095"
       x="75"
       y="40"
       style="fill:#000000;stroke-width:0.420833" />
  </g>
</svg>
